<svg width="16" height="16" viewBox="0 0 16 16" fill="none" xmlns="http://www.w3.org/2000/svg">
<path d="M1.5 11.3334V6.00037C1.5 5.69095 1.623 5.39396 1.8418 5.17517C2.06059 4.95638 2.35757 4.83337 2.66699 4.83337H12C12.8399 4.83337 13.6454 5.16724 14.2393 5.76111C14.833 6.35496 15.167 7.16059 15.167 8.00037C15.1669 8.8401 14.833 9.64584 14.2393 10.2396C13.6454 10.8334 12.8398 11.1664 12 11.1664H11.833V11.3334C11.833 12.1731 11.5 12.9788 10.9062 13.5726C10.3125 14.1664 9.50673 14.5003 8.66699 14.5004H4.66699C3.82722 14.5004 3.02158 14.1664 2.42773 13.5726C1.83387 12.9788 1.5 12.1732 1.5 11.3334ZM3.5 2.66638V1.33337C3.5 1.05723 3.72386 0.833374 4 0.833374C4.27614 0.833374 4.5 1.05723 4.5 1.33337V2.66638C4.5 2.94252 4.27614 3.16638 4 3.16638C3.72386 3.16638 3.5 2.94252 3.5 2.66638ZM6.16699 2.66638V1.33337C6.16699 1.05723 6.39085 0.833374 6.66699 0.833374C6.94298 0.83355 7.16699 1.05734 7.16699 1.33337V2.66638C7.16699 2.94242 6.94298 3.16621 6.66699 3.16638C6.39085 3.16638 6.16699 2.94252 6.16699 2.66638ZM8.83301 2.66638V1.33337C8.83301 1.05734 9.05701 0.83355 9.33301 0.833374C9.60915 0.833374 9.83301 1.05723 9.83301 1.33337V2.66638C9.83301 2.94252 9.60915 3.16638 9.33301 3.16638C9.05701 3.16621 8.83301 2.94242 8.83301 2.66638ZM2.5 11.3334C2.5 11.908 2.72844 12.4593 3.13477 12.8656C3.54108 13.2718 4.09243 13.5004 4.66699 13.5004H8.66699C9.24151 13.5003 9.79297 13.2719 10.1992 12.8656C10.6054 12.4593 10.833 11.9079 10.833 11.3334V6.00037C10.833 5.95616 10.8154 5.91346 10.7842 5.8822C10.7686 5.86666 10.7504 5.85434 10.7305 5.84607L10.667 5.83337H2.66699C2.62279 5.83337 2.58008 5.85095 2.54883 5.8822C2.51757 5.91346 2.5 5.95616 2.5 6.00037V11.3334ZM11.833 10.1664H12C12.5746 10.1664 13.1259 9.93882 13.5322 9.53259C13.9385 9.12634 14.1669 8.57488 14.167 8.00037C14.167 7.42581 13.9385 6.87445 13.5322 6.46814C13.1259 6.06181 12.5746 5.83337 12 5.83337H11.8193C11.8273 5.88835 11.833 5.94417 11.833 6.00037V10.1664Z" fill="black"/>
</svg>
