<svg width="16" height="16" viewBox="0 0 16 16" fill="none" xmlns="http://www.w3.org/2000/svg">
<path d="M6.09138 1.20845C6.75689 1.36555 7.36089 1.83601 7.7873 2.35049C8.14041 2.77661 8.42408 3.30047 8.49095 3.78665C9.19937 4.1967 9.77054 4.70404 10.1177 5.29035C10.4503 5.85211 10.5711 6.47938 10.4162 7.12242C10.9267 7.47574 11.2652 7.75952 11.5087 8.07807C11.7922 8.44927 11.9287 8.84069 12.0966 9.3331C12.187 9.59858 12.1993 9.88849 12.1732 10.1698C12.7601 10.5672 13.1588 10.988 13.4038 11.4356C13.6807 11.9418 13.745 12.4497 13.7025 12.9293L12.9103 12.8611C12.9412 12.5112 12.8948 12.1697 12.7077 11.8278C12.5694 11.575 12.3445 11.3068 11.9902 11.0289C11.8615 11.4362 11.6864 11.8202 11.5328 12.1153C11.8781 12.5219 12.2879 13.2462 12.1589 14.121L11.3717 14.0057C11.4725 13.3219 11.0493 12.7302 10.8039 12.5075C10.7591 12.4811 10.7124 12.4548 10.6642 12.4279C10.0697 12.3232 9.85661 12.3025 9.62701 12.2822C9.4447 12.266 9.25226 12.2493 8.89238 12.1983C8.94764 12.4711 9.03088 12.7803 9.15194 13.0757C9.36452 13.5943 9.65742 13.9978 10.0228 14.1672L9.68847 14.899C9.05188 14.6038 8.65667 13.9718 8.41664 13.386C8.2259 12.9204 8.11374 12.4352 8.05742 12.0517C7.3708 11.8638 6.92073 11.4426 6.66333 10.8787C6.42854 10.3641 6.36465 9.75411 6.37615 9.14647C5.55696 8.91965 4.9837 8.53638 4.66883 7.96964C4.38892 7.46564 4.35105 6.88112 4.44152 6.27108C4.05496 6.22671 3.6594 6.13869 3.28379 5.96169C2.74855 5.70947 2.27575 5.28878 1.92162 4.61791L2.27208 4.42721L2.62389 4.23678C2.89808 4.75607 3.24379 5.05376 3.62193 5.23205C4.01001 5.41493 4.45418 5.48306 4.93469 5.50303C5.31141 5.51868 5.67603 5.50443 6.05774 5.5027C6.19402 5.50208 6.33212 5.50471 6.46954 5.51013C6.37435 5.3035 6.24933 5.07909 6.09014 4.86347C5.76447 4.42235 5.31833 4.04081 4.73343 3.88954L4.93301 3.11022C5.74306 3.31964 6.3299 3.84097 6.72835 4.38066C6.99653 4.74397 7.18687 5.12749 7.31129 5.45705C7.57491 4.88655 7.69764 4.41707 7.71265 4.01987C7.72239 3.7606 7.54556 3.31306 7.17719 2.86852C6.81813 2.43532 6.35107 2.09627 5.90715 1.99148L5.99967 1.59969L6.09138 1.20845ZM7.16994 9.30699C7.17267 9.79081 7.23637 10.2108 7.38618 10.5391C7.56627 10.9335 7.88248 11.2239 8.48308 11.3214C9.20076 11.4379 9.45931 11.4597 9.70077 11.4811C9.88939 11.4979 10.0683 11.5153 10.4047 11.5682C10.3852 11.2321 10.3125 10.9183 10.1536 10.633C9.92841 10.2288 9.50816 9.83188 8.72358 9.51525C8.62558 9.47571 8.52104 9.4388 8.41144 9.40197C7.95387 9.39114 7.54106 9.35957 7.16994 9.30699ZM10.125 7.89803C9.91702 8.35263 9.69368 8.72242 9.50147 8.99386C10.1409 9.33172 10.5759 9.75041 10.8464 10.2359C10.9942 10.5012 11.0847 10.7766 11.1395 11.0526C11.2316 10.8075 11.3123 10.5493 11.3559 10.302C11.4084 10.0037 11.4019 9.76462 11.345 9.59773C11.1726 9.0919 11.0708 8.82459 10.878 8.57227C10.7276 8.37545 10.5091 8.17455 10.125 7.89803ZM8.41877 4.68709C8.32594 5.10217 8.16149 5.54391 7.92398 6.01898C8.28886 6.29051 8.6175 6.64775 8.8266 7.09119C8.9872 7.43188 9.06867 7.81285 9.05284 8.22539C9.22371 7.94491 9.41461 7.583 9.58001 7.14686C9.76783 6.65151 9.70851 6.16818 9.43464 5.70566C9.22321 5.34872 8.88064 5.00091 8.41877 4.68709ZM5.23933 6.31064C5.14817 6.85088 5.19073 7.26244 5.36299 7.57278C5.56177 7.93057 5.98907 8.25343 6.86919 8.43997C7.23851 8.51823 7.67974 8.56776 8.20213 8.5896C8.31472 8.13687 8.25797 7.75659 8.1089 7.44029C7.92554 7.05133 7.5919 6.7297 7.20445 6.50291C7.1177 6.45214 7.02869 6.4077 6.93993 6.36778C6.69698 6.31778 6.40488 6.30518 6.0575 6.30675C5.80834 6.30788 5.52647 6.31249 5.23933 6.31064Z" fill="#3B3A3A"/>
</svg>
