<svg width="16" height="16" viewBox="0 0 16 16" fill="none" xmlns="http://www.w3.org/2000/svg">
<path d="M10.3328 9.33296H9.80622L9.6196 9.15301C10.2728 8.3932 10.666 7.40678 10.666 6.33371C10.666 3.94098 8.72649 2.00146 6.33375 2.00146C3.94102 2.00146 2.0015 3.94098 2.0015 6.33371C2.0015 8.72645 3.94102 10.666 6.33375 10.666C7.40682 10.666 8.39324 10.2727 9.15305 9.61956L9.333 9.80618V10.3327L12.6655 13.6585L13.6586 12.6655L10.3328 9.33296ZM6.33375 9.33296C4.67417 9.33296 3.3345 7.9933 3.3345 6.33371C3.3345 4.67413 4.67417 3.33446 6.33375 3.33446C7.99334 3.33446 9.333 4.67413 9.333 6.33371C9.333 7.9933 7.99334 9.33296 6.33375 9.33296Z" fill="#3B3A3A"/>
</svg>
