<svg width="24" height="24" viewBox="0 0 24 24" fill="none" xmlns="http://www.w3.org/2000/svg">
<path d="M6.6876 11.0226C7.97485 10.9051 9.01232 11.4785 9.66568 12.6048C9.76752 12.7803 9.82178 13.1658 9.98066 13.2736C10.2394 13.3255 10.5987 12.7896 10.889 12.715C10.9765 12.7296 10.9455 12.7124 11.0048 12.7801C11.0502 13.042 11.0674 15.2429 11.005 15.439C10.6966 15.6275 10.1955 15.7715 9.86305 15.9399C9.09531 16.3289 8.31439 16.7554 7.48093 16.9907C7.30878 17.0393 6.86542 17.0176 6.66918 17.0126C6.09317 16.9162 5.55322 16.6682 5.10477 16.2941C4.96234 16.1749 4.736 15.966 4.58125 15.8848C3.83842 15.8886 3.37574 16.2004 2.58906 15.7443C2.27791 15.5639 2.16884 15.3983 2.06223 15.0537C2.0365 14.9705 2.01791 14.8064 2.07294 14.7409C2.29866 14.472 2.84816 14.7667 3.12067 14.8187C3.27144 14.8474 3.43935 14.8563 3.56891 14.8329C4.0566 14.7447 3.95242 13.9186 4.03881 13.5449C4.1484 13.0707 4.2879 12.6656 4.56393 12.2579C4.70017 12.0567 4.84473 11.9718 4.99607 11.8156C5.5067 11.2886 5.95548 11.1442 6.6876 11.0226ZM7.15888 14.9579C7.43607 14.9115 7.67947 14.747 7.826 14.5072C7.97256 14.2673 8.00781 13.9757 7.92266 13.7079C7.77784 13.2524 7.32268 12.9703 6.85035 13.0434C6.31878 13.1257 5.95576 13.6249 6.04133 14.1559C6.12692 14.6869 6.62839 15.0468 7.15888 14.9579Z" fill="#3B3A3A"/>
<path d="M21.8308 7.83326C22.0757 7.89227 21.998 8.4311 21.9933 8.64C21.8175 8.88534 21.75 9.18829 21.6612 9.3225C21.5068 9.55598 21.0247 10.1059 20.8353 10.3091C20.6879 10.4672 19.9283 10.9413 19.7264 11.0977C19.6701 11.1412 19.08 11.4274 18.9633 11.4863L17.5114 12.2128C17.0549 12.436 16.3843 12.8996 15.8732 12.9052C15.8303 12.8683 15.8436 12.8855 15.8297 12.8216C16.1203 12.1668 15.8712 10.778 15.8114 10.0328C16.2729 9.83299 16.8324 9.67275 17.3106 9.49226L19.3115 8.75414C19.6577 8.6227 19.9984 8.47652 20.3453 8.34326C20.7729 8.17891 21.4385 8.01745 21.8308 7.83326Z" fill="#3B3A3A"/>
<path fill-rule="evenodd" clip-rule="evenodd" d="M16.8064 15.6046C16.088 14.993 15.3329 14.9608 14.4212 15.0039C14.4556 14.8654 14.4718 14.7281 14.488 14.5915C14.503 14.4638 14.518 14.3367 14.5478 14.2099C14.5957 14.0054 14.6552 13.7941 14.7153 13.5803C14.828 13.1801 14.9431 12.7711 14.9895 12.3817L14.1247 2.9722C14.0793 2.7887 14.0539 2.59536 14.0286 2.40224C14.0123 2.27784 13.9959 2.15353 13.9743 2.032C13.8315 1.99807 13.5408 2.12561 13.4211 2.19739C12.6553 2.65678 12.2682 3.79439 12.0986 4.62623C11.9706 5.254 11.9816 6.2255 11.9906 7.02094C11.9927 7.20958 11.9947 7.38832 11.9947 7.55022L11.9958 16.173C11.9958 16.3549 11.9948 16.537 11.9939 16.7192C11.9911 17.2546 11.9883 17.7911 12.0103 18.3266C12.0256 18.6983 12.1664 19.0878 12.3504 19.4133C12.7476 20.1155 13.4698 20.7212 14.2629 20.9174C14.9164 21.0352 15.7738 21.0491 16.3534 20.6937C16.996 20.2997 17.2734 20.0319 17.6533 19.389C17.983 18.8308 17.984 18.7985 18.0032 18.1715C18.0036 18.1588 18.004 18.1459 18.0044 18.1328C18.0233 17.5198 17.9694 17.0623 17.627 16.5231C17.571 16.437 17.4982 16.3448 17.4238 16.2504C17.3331 16.1355 17.2399 16.0175 17.1715 15.9034C17.1424 15.8549 17.0291 15.772 16.9329 15.7016C16.8799 15.6629 16.8321 15.6279 16.8064 15.6046ZM15.1524 18.9483C15.4936 18.894 15.7792 18.6603 15.8998 18.3365C16.0205 18.0128 15.9575 17.6492 15.7351 17.3848C15.5126 17.1205 15.1651 16.9964 14.8255 17.06C14.3103 17.1565 13.9683 17.6489 14.0577 18.1654C14.1471 18.6818 14.6348 19.0306 15.1524 18.9483ZM13.592 12.9485L13.6092 12.9372C13.9632 12.7041 13.976 12.6957 13.9531 12.259C13.7793 12.1301 13.6583 12.0495 13.4265 12.0742C12.721 12.2037 13.0054 12.9509 13.592 12.9485Z" fill="#3B3A3A"/>
</svg>
