<svg width="24" height="24" viewBox="0 0 24 24" fill="none" xmlns="http://www.w3.org/2000/svg">
<path d="M12.0098 19.3002C12.3964 19.3002 12.71 19.6138 12.71 20.0004C12.7098 20.3868 12.3962 20.6996 12.0098 20.6996H12C11.6135 20.6996 11.3 20.3868 11.2998 20.0004C11.2998 19.6138 11.6134 19.3002 12 19.3002H12.0098ZM12 14.3002C13.492 14.3002 14.9247 14.8847 15.9902 15.9291C16.2662 16.1997 16.2706 16.6433 16 16.9193C15.7294 17.1953 15.2858 17.1997 15.0098 16.9291C14.206 16.1412 13.1255 15.6996 12 15.6996C10.8745 15.6996 9.79402 16.1412 8.99023 16.9291C8.71417 17.1997 8.27062 17.1953 7.99999 16.9193C7.7294 16.6433 7.73377 16.1997 8.00976 15.9291C9.07525 14.8847 10.508 14.3002 12 14.3002ZM12 9.30017C14.8007 9.30017 17.4901 10.3983 19.4902 12.3588C19.7663 12.6294 19.7705 13.0729 19.5 13.349C19.2294 13.6251 18.7858 13.6294 18.5098 13.3588C16.7713 11.6549 14.4342 10.7006 12 10.7006C9.56579 10.7006 7.22865 11.6549 5.49023 13.3588C5.21414 13.6294 4.77061 13.6251 4.49999 13.349C4.22944 13.0729 4.23369 12.6294 4.50976 12.3588C6.50989 10.3983 9.19927 9.30017 12 9.30017ZM12 4.30017C15.8618 4.30017 19.5883 5.72365 22.4668 8.29822C22.7549 8.55596 22.7792 8.99836 22.5215 9.2865C22.2638 9.57459 21.8213 9.59977 21.5332 9.34216C18.9114 6.99718 15.5175 5.70056 12 5.70056C8.48252 5.70056 5.08856 6.99718 2.46679 9.34216C2.17864 9.59977 1.73621 9.57459 1.47851 9.2865C1.22079 8.99836 1.24508 8.55596 1.5332 8.29822C4.41165 5.72365 8.13815 4.30017 12 4.30017Z" fill="black"/>
</svg>
